<svg width="41" height="16" viewBox="0 0 41 16" fill="none" xmlns="http://www.w3.org/2000/svg">
<path d="M0.395596 10.7198C0.451404 9.83858 0.488608 8.84486 0.488608 7.96363C0.488608 5.86368 0.339789 3.91372 0.0421507 2.17001C-0.181078 0.970039 0.488608 0.126309 1.90239 0.145059C2.20003 0.145059 3.76263 0.182557 4.20909 0.182557C4.67415 0.182557 6.01352 0.145059 6.29256 0.145059C7.72494 0.126309 8.37603 0.970039 8.1714 2.17001C7.91097 3.72623 7.68774 5.93867 7.66914 8.03863C7.66914 8.58236 7.78075 10.7386 8.56205 10.8136C9.7154 10.9261 9.77121 9.3511 10.9432 9.42609C11.4826 9.44484 11.6314 9.95108 11.6687 10.6823C11.7059 11.4323 11.5942 12.426 11.6687 13.2135C11.7059 13.7197 11.7245 14.151 11.7059 14.4885C11.6687 15.5197 11.3152 15.8384 10.6641 15.9322C9.80841 16.0634 8.02258 15.9322 7.24128 15.8759C5.79029 15.8009 3.85564 15.8384 2.90692 15.8947C1.73497 15.9697 1.13969 15.7634 0.525813 14.9947C-0.143873 14.1322 0.246777 12.501 0.395596 10.7198Z" fill="black"/>
<path d="M19.5292 12.5948C19.6408 13.551 19.8082 14.3572 19.6222 14.9572C19.2688 16.1197 17.4643 16.0072 15.6971 15.9884C13.7438 15.9884 12.1254 16.1384 11.7348 14.9947C11.1395 13.3448 12.6649 11.2823 13.688 6.66991C14.2275 4.26996 13.4648 1.12004 15.0274 0.238806C15.9017 -0.267432 18.3014 0.220057 19.4176 0.220057C20.8128 0.201307 23.0264 -0.36118 24.0682 0.388803C25.1843 1.19503 25.0355 4.8137 25.4448 6.65116C26.5051 11.3948 27.5468 13.176 27.212 14.7697C26.9702 15.9509 26.0586 15.9884 24.1054 15.9884C22.3382 16.0072 21.1476 16.1197 20.8686 14.9572C20.6453 14.0947 20.8872 13.4385 20.9802 12.501C21.3522 8.52611 20.9802 7.68238 20.2361 7.70113C19.4548 7.70113 19.1199 8.93861 19.5292 12.5948ZM20.9244 5.16994C20.8872 4.58871 20.7569 3.51998 20.5709 3.21999C20.2547 2.7325 19.9756 2.86375 19.771 3.21999C19.6036 3.53873 19.4176 4.58871 19.399 5.15119C19.399 5.46993 19.4548 5.65743 19.7152 5.67618C19.9942 5.69493 20.3663 5.69493 20.6639 5.67618C20.8872 5.65743 20.943 5.48869 20.9244 5.16994Z" fill="black"/>
<path d="M27.9177 0.95129C28.4944 0.163808 29.1083 -0.0236875 30.243 0.0325616C31.1731 0.0888096 33.2566 0.238806 34.6704 0.163808C35.2657 0.126309 36.3074 0.0325616 36.9399 0.0513109C37.7398 0.0700603 38.4467 0.370053 38.9117 0.801293C40.0465 1.85127 39.8605 6.91365 39.1164 7.98238C38.4653 8.93861 37.2375 9.33235 36.2888 9.29485C35.5819 9.2761 34.9308 8.88236 34.5588 8.90111C33.9821 8.93861 33.7403 9.40734 33.9077 9.87608C34.3169 11.0386 35.4889 12.0698 35.7679 13.8885C35.9539 15.1072 35.3401 15.9322 33.9449 15.9134C33.6659 15.9134 32.1405 15.8759 31.694 15.8759C31.2475 15.8759 29.7221 15.9134 29.4431 15.9134C28.0479 15.9322 27.5643 15.1072 27.6201 13.8885C27.6759 11.7135 28.0479 9.98858 28.0293 8.16987C28.0107 6.29492 27.6573 4.71995 27.6015 2.86375C27.5643 2.02001 27.6201 1.34503 27.9177 0.95129ZM34.5402 5.76993C35.5261 5.73243 35.5075 2.88249 34.4658 2.88249C34.0007 2.88249 33.7775 2.99499 33.7775 4.56996C33.7589 5.60118 33.9821 5.78868 34.5402 5.76993Z" fill="black"/>
<path d="M41 13.6447C41 14.9391 39.9589 15.9884 38.6747 15.9884C37.3905 15.9884 36.3494 14.9391 36.3494 13.6447C36.3494 12.3504 37.3905 11.3011 38.6747 11.3011C39.9589 11.3011 41 12.3504 41 13.6447Z" fill="black"/>
</svg>
